<?xml version="1.0" standalone="no"?>
<!DOCTYPE svg PUBLIC "-//W3C//DTD SVG 20010904//EN"
 "http://www.w3.org/TR/2001/REC-SVG-20010904/DTD/svg10.dtd">
<svg version="1.0" xmlns="http://www.w3.org/2000/svg"
 width="800.000000pt" height="800.000000pt" viewBox="0 0 800.000000 800.000000"
 preserveAspectRatio="xMidYMid meet">
<metadata>
Created by potrace 1.11, written by Peter Selinger 2001-2013
</metadata>
<g transform="translate(0.000000,800.000000) scale(0.100000,-0.100000)"
fill="#000000" stroke="none">
<path d="M4572 7344 c-136 -68 -201 -222 -208 -488 -3 -147 -3 -150 -32 -185
-16 -20 -55 -49 -87 -66 -53 -27 -67 -30 -149 -29 -75 1 -117 8 -236 42 -134
39 -200 54 -290 66 -33 5 -33 5 -10 -6 166 -76 230 -124 266 -201 42 -93 12
-190 -91 -293 -52 -51 -72 -63 -124 -78 -60 -17 -139 -21 -206 -12 -277 39
-547 23 -873 -50 -340 -76 -678 -246 -911 -459 -111 -100 -281 -285 -263 -285
6 0 12 3 14 8 6 13 154 121 239 172 145 88 324 164 437 185 15 3 38 7 52 10
32 7 187 8 220 1 54 -11 110 -29 110 -35 0 -3 -21 -15 -48 -25 -87 -35 -276
-131 -362 -184 -47 -29 -94 -58 -105 -65 -11 -6 -69 -49 -130 -94 -400 -297
-717 -712 -898 -1178 -51 -131 -115 -352 -132 -455 -3 -19 -10 -57 -15 -85
-20 -105 -34 -287 -34 -435 0 -92 10 -264 18 -305 2 -11 6 -42 10 -70 41 -305
183 -696 347 -955 9 -14 31 -48 49 -77 18 -29 37 -50 41 -47 5 3 6 -2 3 -10
-3 -9 4 -21 19 -31 25 -16 28 -14 224 115 205 137 239 161 188 136 -112 -54
-438 -186 -446 -180 -11 6 -96 186 -133 279 -35 89 -101 306 -112 368 -3 18
-9 50 -14 72 -5 22 -12 63 -16 90 -3 28 -8 57 -9 66 -3 12 12 22 53 37 45 16
294 98 361 118 29 9 2 12 -154 18 -179 8 -267 15 -275 22 -3 3 -4 63 -4 132 1
164 14 303 40 437 2 11 6 31 9 45 8 45 35 143 62 228 l26 84 63 -7 c35 -3 73
-8 86 -10 13 -2 46 -6 73 -10 28 -3 76 -10 109 -16 32 -6 60 -9 62 -7 1 2 -18
15 -44 28 -89 46 -277 152 -286 160 -12 12 110 254 192 380 76 117 181 250
267 341 l57 59 36 -22 c21 -13 88 -58 151 -101 63 -43 108 -69 100 -59 -8 11
-53 74 -102 140 -48 66 -87 124 -86 129 0 4 35 35 77 69 202 160 395 271 633
364 l95 37 20 -33 c10 -18 43 -76 73 -128 30 -53 55 -95 56 -93 2 1 -10 63
-25 137 -15 74 -25 138 -23 142 3 7 194 54 258 63 22 4 51 8 65 10 180 28 583
22 602 -8 4 -7 8 -23 8 -37 2 -57 11 -184 13 -187 2 -1 16 47 33 107 16 62 34
110 41 110 33 0 280 -68 398 -109 97 -35 367 -171 427 -216 l27 -20 -34 -85
c-22 -53 -28 -77 -17 -64 105 124 98 119 126 101 51 -34 203 -167 272 -238 95
-99 195 -224 266 -334 l59 -90 -45 -42 c-25 -24 -43 -43 -42 -43 2 0 23 9 47
20 24 11 49 20 55 20 13 0 104 -188 144 -300 57 -155 101 -338 116 -482 3 -34
8 -65 10 -67 8 -9 -20 -31 -40 -31 -16 0 -18 -2 -7 -9 8 -5 23 -8 33 -6 18 4
19 -3 14 -168 -7 -261 -61 -521 -150 -728 -6 -13 23 -25 161 -68 92 -29 173
-54 178 -55 6 -1 64 -20 130 -40 554 -177 588 -185 690 -182 106 3 192 43 273
126 109 111 206 317 257 547 15 66 47 221 60 292 9 47 25 97 35 111 81 113 89
294 24 543 -22 85 -51 138 -137 245 -41 51 -84 112 -95 136 -30 60 -37 134
-18 181 19 45 19 45 5 45 -14 0 -55 -45 -76 -85 -23 -43 -20 -136 7 -225 28
-90 30 -163 6 -208 -24 -45 -94 -88 -159 -96 -158 -20 -266 99 -276 301 -3 55
10 85 108 263 103 186 228 458 255 555 2 6 6 17 9 25 9 20 66 208 72 234 2 12
14 59 25 106 36 146 41 181 40 325 0 211 -35 316 -147 448 -111 130 -134 162
-145 205 -13 45 -19 50 -37 29 -23 -29 -19 -93 11 -168 16 -41 31 -85 32 -99
6 -57 -50 -112 -107 -106 -60 7 -120 64 -173 167 -51 99 -121 205 -209 314
-104 130 -176 200 -338 332 -33 26 -29 7 11 -58 44 -73 180 -347 212 -429 12
-30 27 -66 33 -80 5 -14 11 -29 13 -35 2 -5 17 -50 34 -98 28 -81 66 -225 76
-287 12 -77 11 -226 -2 -282 -29 -122 -95 -208 -159 -208 -72 0 -202 66 -276
140 -77 76 -100 204 -73 400 15 107 10 316 -9 398 -61 259 -167 386 -452 537
-180 95 -221 119 -260 149 -227 174 -334 450 -244 629 11 20 16 37 11 37 -4 0
-31 -12 -60 -26z"/>
<path d="M2715 3349 c-94 -26 -140 -152 -85 -233 38 -55 104 -81 171 -67 29 6
38 2 69 -29 34 -34 47 -40 178 -71 28 -7 42 -16 42 -27 0 -9 16 -38 35 -63 75
-104 216 -133 332 -69 l59 32 119 -32 c66 -17 127 -33 135 -35 8 -2 74 -20
145 -40 72 -20 164 -45 205 -56 41 -11 109 -29 150 -40 41 -11 91 -24 110 -29
19 -5 71 -18 115 -30 44 -12 87 -24 95 -26 8 -2 80 -21 160 -44 80 -22 154
-42 165 -44 11 -2 56 -14 100 -26 175 -48 217 -58 209 -51 -5 4 -25 14 -44 21
-42 16 -337 137 -365 149 -11 5 -141 59 -290 120 -496 202 -910 373 -927 382
-10 5 -22 27 -28 48 -15 58 -87 132 -148 154 -78 28 -168 21 -225 -18 -15 -11
-32 -7 -103 21 -85 35 -140 42 -174 24 -15 -8 -20 -6 -24 8 -16 49 -116 89
-181 71z"/>
</g>
</svg>
